<svg width="12" height="10" viewBox="0 0 12 10" fill="none" xmlns="http://www.w3.org/2000/svg">
<path d="M1.62577 2.23731C1.63293 2.1663 1.62335 2.0946 1.5978 2.02795C1.57224 1.9613 1.53143 1.90155 1.47863 1.85348L0.38787 0.531063V0.333313H3.77342L6.39054 6.11123L8.69117 0.333313H11.9191V0.531063L10.9866 1.42998C10.947 1.46046 10.9165 1.50108 10.8983 1.54752C10.8801 1.59396 10.8749 1.64447 10.8832 1.69365V8.30515C10.8749 8.35433 10.8801 8.40483 10.8983 8.45127C10.9165 8.49771 10.947 8.53833 10.9866 8.56881L11.8975 9.46831V9.66665H7.31722V9.46889L8.26083 8.54723C8.35367 8.45389 8.35367 8.42648 8.35367 8.28414V2.93965L5.73071 9.64448H5.37686L2.32297 2.93965V7.43365C2.29786 7.62206 2.36034 7.81281 2.49231 7.94931L3.71912 9.44731V9.64448H0.240723V9.44731L1.46695 7.94931C1.53183 7.88168 1.57998 7.79983 1.60756 7.71029C1.63513 7.62075 1.64137 7.52602 1.62577 7.43365V2.23731Z" fill="#29C111"/>
</svg>
