<svg width="12" height="10" viewBox="0 0 12 10" fill="none" xmlns="http://www.w3.org/2000/svg">
<path d="M11.7051 1.47676C11.2863 1.65723 10.8306 1.78712 10.3612 1.8377C10.8486 1.54845 11.2135 1.09149 11.3876 0.552545C10.9303 0.824327 10.4293 1.01491 9.90685 1.11583C9.68849 0.88262 9.42439 0.696838 9.13102 0.570055C8.83764 0.443272 8.52127 0.378207 8.20163 0.378912C6.90834 0.378912 5.86824 1.42618 5.86824 2.71134C5.86824 2.8918 5.89014 3.07227 5.92572 3.24591C3.98922 3.14473 2.2621 2.22051 1.11388 0.805475C0.904664 1.16247 0.795027 1.56895 0.796377 1.98262C0.796377 2.792 1.20831 3.50567 1.83648 3.9254C1.46629 3.91083 1.10477 3.80919 0.781323 3.62872V3.65743C0.781323 4.79083 1.5833 5.73009 2.65214 5.9461C2.45145 5.99818 2.245 6.02482 2.03766 6.0254C1.88575 6.0254 1.74205 6.01036 1.59698 5.98985C1.89259 6.91407 2.75341 7.58536 3.77846 7.60724C2.97648 8.23478 1.97197 8.60392 0.881227 8.60392C0.685524 8.60392 0.504875 8.59708 0.317383 8.57521C1.35201 9.23829 2.5796 9.62111 3.90163 9.62111C8.19342 9.62111 10.5419 6.06915 10.5419 2.98614C10.5419 2.88497 10.5419 2.7838 10.535 2.68262C10.9894 2.3504 11.3876 1.93887 11.7051 1.47676Z" fill="#04A9F4"/>
</svg>
