<svg width="19" height="17" viewBox="0 0 19 17" fill="none" xmlns="http://www.w3.org/2000/svg">
<g clip-path="url(#clip0_215_114)">
<path d="M18.3634 0.11648L0.912148 6.82495C0.328132 7.07085 0.0246013 7.33596 0.00154847 7.62029C-0.0215056 7.90461 0.212866 8.12361 0.70467 8.2773L5.17698 9.66049L15.5279 3.13645C15.7738 2.98276 15.9774 2.93281 16.1388 2.9866C16.3001 3.04039 16.2886 3.15181 16.1042 3.32087L7.71283 10.9054L7.41314 15.516C7.6283 15.516 7.8012 15.4699 7.93184 15.3777C8.06247 15.2855 8.18926 15.1779 8.31221 15.0549L10.4792 12.934L14.9976 16.2767C15.428 16.5073 15.7853 16.5611 16.0696 16.4381C16.3539 16.3152 16.5499 16.0078 16.6575 15.516L19.6083 1.52272C19.762 0.907969 19.6928 0.473805 19.4008 0.220219C19.1088 -0.0333666 18.763 -0.0679465 18.3634 0.11648Z" fill="white"/>
</g>
<defs>
<clipPath id="clip0_215_114">
<rect width="18.9036" height="16.1603" fill="white"/>
</clipPath>
</defs>
</svg>
