<svg width="21" height="16" viewBox="0 0 21 16" fill="none" xmlns="http://www.w3.org/2000/svg">
<g clip-path="url(#clip0_215_116)">
<path d="M18.0255 3.91904C18.0255 4.01125 18.0255 4.09962 18.0255 4.18415C18.0255 4.26868 18.0255 4.35705 18.0255 4.44926C18.0255 5.75561 17.7796 7.07732 17.2878 8.41441C16.796 9.7515 16.0737 10.9618 15.1208 12.0453C14.168 13.1288 12.9923 14.0086 11.5937 14.6849C10.1951 15.3765 8.58143 15.7223 6.75254 15.7223C5.63061 15.7223 4.55481 15.5647 3.5251 15.2497C2.49538 14.9346 1.54253 14.4928 0.666504 13.9241C0.835561 13.9549 0.996932 13.9702 1.15062 13.9702C1.30431 13.9702 1.46568 13.9702 1.63474 13.9702C2.55687 13.9702 3.43672 13.8242 4.27433 13.5322C5.11193 13.2402 5.86883 12.8252 6.54506 12.2873C5.68441 12.272 4.91597 12.0069 4.23975 11.492C3.56351 10.9771 3.09477 10.3278 2.8335 9.54401C2.95645 9.55938 3.08324 9.57475 3.21388 9.59012C3.34451 9.60549 3.47131 9.61317 3.59426 9.61317C3.77868 9.61317 3.95542 9.5978 4.12448 9.56706C4.29354 9.53633 4.46259 9.50559 4.63165 9.47485C3.72489 9.29043 2.96798 8.83705 2.36091 8.11471C1.75384 7.39238 1.45031 6.5471 1.45031 5.57887V5.53276C1.72695 5.67108 2.01511 5.78634 2.3148 5.87856C2.6145 5.97077 2.92571 6.02456 3.24846 6.03993C2.71055 5.68645 2.28023 5.2177 1.95748 4.63369C1.63474 4.04967 1.47337 3.41956 1.47337 2.74333C1.47337 2.37447 1.52331 2.021 1.62321 1.68288C1.72311 1.34477 1.85758 1.02971 2.02664 0.737701C2.51844 1.33709 3.06403 1.88267 3.66342 2.37448C4.2628 2.86628 4.90828 3.28892 5.59988 3.6424C6.29148 3.99588 7.02917 4.2802 7.81299 4.49537C8.58143 4.71053 9.37291 4.84116 10.1875 4.88727C10.1567 4.73358 10.1337 4.5799 10.1183 4.42621C10.1029 4.27252 10.0952 4.11883 10.0952 3.96514C10.0952 2.87396 10.4795 1.94031 11.2479 1.16418C12.0164 0.388058 12.9538 0 14.0604 0C14.629 0 15.1631 0.115264 15.6626 0.345798C16.1621 0.57633 16.5886 0.883703 16.942 1.26792C17.4031 1.17571 17.845 1.04892 18.2676 0.887547C18.6902 0.726174 19.086 0.530224 19.4548 0.299691C19.3165 0.760757 19.0975 1.17955 18.7978 1.55609C18.4981 1.93263 18.1408 2.24384 17.7258 2.48974C18.1254 2.44364 18.5173 2.36679 18.9016 2.25921C19.2858 2.15163 19.6546 2.02099 20.0081 1.86731C19.7315 2.2669 19.4279 2.63959 19.0975 2.98539C18.7671 3.33118 18.4098 3.6424 18.0255 3.91904Z" fill="white"/>
</g>
<defs>
<clipPath id="clip0_215_116">
<rect width="19.3416" height="15.7223" fill="white" transform="translate(0.666504)"/>
</clipPath>
</defs>
</svg>
