<svg width="21" height="14" viewBox="0 0 21 14" fill="none" xmlns="http://www.w3.org/2000/svg">
<g clip-path="url(#clip0_215_118)">
<path d="M19.9053 2.34742C19.7977 1.93246 19.5902 1.56745 19.2828 1.25239C18.9754 0.937331 18.6066 0.726012 18.1763 0.61843C17.7921 0.510848 17.1773 0.426321 16.332 0.364845C15.4714 0.318738 14.6107 0.280318 13.7501 0.24958C12.8894 0.218842 12.1287 0.203473 11.4678 0.203473C10.8069 0.188104 10.4765 0.18042 10.4765 0.18042C10.4765 0.18042 10.1461 0.188104 9.48523 0.203473C8.82437 0.203473 8.06362 0.215 7.20296 0.238053C6.34231 0.261106 5.48167 0.295685 4.62101 0.341792C3.77572 0.403267 3.16098 0.487795 2.77676 0.595376C2.3618 0.702959 1.99679 0.914277 1.68173 1.22934C1.36667 1.5444 1.15535 1.90941 1.04777 2.32436C0.832606 3.10818 0.709656 4.09561 0.678918 5.2867C0.648181 6.47778 0.632812 7.07332 0.632812 7.07332C0.632812 7.07332 0.648181 7.67269 0.678918 8.87146C0.709656 10.0702 0.824922 11.0461 1.02472 11.7992C1.1323 12.2295 1.34362 12.5984 1.65868 12.9058C1.97374 13.2131 2.33875 13.4283 2.7537 13.5513C3.15329 13.6435 3.77572 13.7203 4.62101 13.7818C5.4663 13.8433 6.3231 13.8894 7.19144 13.9201C8.05978 13.9508 8.82437 13.9662 9.48523 13.9662C10.1307 13.9662 10.4535 13.9662 10.4535 13.9662C10.4535 13.9662 10.7839 13.9662 11.4447 13.9662C12.1056 13.9662 12.8702 13.9547 13.7385 13.9316C14.6069 13.9086 15.4637 13.8663 16.309 13.8048C17.1543 13.7587 17.769 13.6819 18.1532 13.5743C18.5835 13.4667 18.9524 13.2554 19.2598 12.9403C19.5671 12.6253 19.7823 12.2603 19.9053 11.8453C20.1051 11.0769 20.2242 10.0933 20.2626 8.89452C20.301 7.69575 20.3202 7.09637 20.3202 7.09637C20.3202 7.09637 20.3048 6.49699 20.2741 5.29822C20.2434 4.09945 20.1204 3.11586 19.9053 2.34742ZM8.49394 10.0241L8.517 4.12251L13.6348 7.07332L8.49394 10.0241Z" fill="white"/>
</g>
<defs>
<clipPath id="clip0_215_118">
<rect width="19.6874" height="13.7858" fill="white" transform="translate(0.632812 0.18042)"/>
</clipPath>
</defs>
</svg>
